<?xml version="1.0" standalone="no"?>
<!DOCTYPE svg PUBLIC "-//W3C//DTD SVG 20010904//EN"
 "http://www.w3.org/TR/2001/REC-SVG-20010904/DTD/svg10.dtd">
<svg version="1.0" xmlns="http://www.w3.org/2000/svg"
 width="1024.000000pt" height="1024.000000pt" viewBox="0 0 1024.000000 1024.000000"
 preserveAspectRatio="xMidYMid meet">
<metadata>
Created by potrace 1.14, written by Peter Selinger 2001-2017
</metadata>
<g transform="translate(0.000000,1024.000000) scale(0.100000,-0.100000)"
fill="#000000" stroke="none">
<path d="M4431 10057 c-7 -7 -11 -51 -12 -111 0 -56 -3 -119 -7 -141 l-7 -40
-355 -5 -355 -5 -5 -232 c-4 -163 -9 -236 -17 -244 -8 -8 -64 -14 -160 -18
l-148 -6 -3 -129 c-1 -75 -7 -135 -14 -143 -8 -10 -48 -13 -155 -13 -106 0
-145 -3 -148 -12 -2 -7 -6 -207 -7 -445 l-3 -431 1325 -6 c729 -3 1352 -7
1385 -10 33 -3 353 -5 710 -5 l650 -1 0 -220 0 -220 -2037 0 -2038 0 0 223 0
223 -149 -1 c-82 0 -153 4 -158 8 -4 5 -10 63 -13 130 l-5 122 -305 0 -305 0
0 -235 0 -235 148 -6 c113 -4 151 -9 158 -20 13 -22 11 -193 -3 -207 -9 -9
-92 -12 -313 -12 -221 0 -304 -3 -313 -12 -17 -17 -17 -579 0 -596 8 -8 58
-12 159 -12 125 0 148 -2 153 -16 3 -9 6 -64 6 -123 0 -70 4 -111 12 -119 17
-17 279 -17 296 0 8 8 12 50 12 123 0 60 5 117 10 125 8 12 36 15 155 15 119
0 147 -3 155 -15 5 -8 10 -67 10 -130 0 -77 4 -120 12 -128 8 -8 54 -12 139
-12 93 0 129 -3 138 -13 7 -9 12 -123 13 -353 l3 -339 148 -6 c95 -4 152 -10
160 -18 8 -8 14 -76 17 -224 l5 -212 148 -5 147 -5 0 232 0 233 -162 2 -163 3
0 345 0 345 1080 6 c1377 8 1839 10 2418 9 l467 0 0 -140 0 -140 -115 0 c-96
0 -115 -3 -115 -15 0 -13 -23 -15 -150 -15 l-150 0 0 -299 0 -299 -22 -6 c-13
-3 -93 -6 -178 -6 l-156 0 1 -137 0 -138 -165 -2 c-91 -1 -171 -2 -177 -2 -10
-1 -13 -26 -13 -91 l0 -90 -180 0 -180 0 0 -120 0 -120 -165 0 -165 0 0 -150
0 -150 -330 0 -330 0 0 155 0 155 -123 0 c-68 0 -226 3 -350 7 l-227 6 -2 206
-3 206 -165 3 -166 2 4 -197 c2 -109 5 -204 7 -210 3 -10 44 -13 158 -13 106
0 157 -4 165 -12 14 -14 17 -265 3 -287 -7 -11 -46 -16 -168 -20 l-158 -6 -3
-134 c-1 -79 -7 -140 -14 -148 -14 -18 -308 -19 -326 -1 -9 9 -12 87 -12 290
0 214 -3 280 -12 283 -7 2 -147 6 -311 7 l-297 3 0 -132 0 -133 161 0 161 0
-3 -292 -4 -293 -65 -5 c-36 -3 -251 -4 -477 -2 l-413 2 0 435 0 435 318 0
317 0 -3 125 -3 125 -150 0 -149 0 0 195 0 196 153 -3 152 -3 3 -185 2 -185
137 3 c78 2 143 8 150 14 18 14 19 338 1 356 -8 8 -55 12 -144 12 -96 0 -134
4 -142 13 -6 7 -13 60 -14 118 l-3 104 -299 3 c-165 1 -303 -1 -308 -6 -4 -4
-11 -201 -14 -437 -4 -257 -11 -435 -17 -442 -7 -9 -49 -13 -146 -13 -93 0
-141 -4 -149 -12 -17 -17 -17 -819 0 -836 8 -8 56 -12 149 -12 101 0 139 -3
147 -13 7 -8 13 -68 14 -143 l3 -129 153 -6 c84 -3 157 -10 162 -15 5 -5 12
-76 17 -159 l8 -150 139 -3 c82 -1 145 -7 153 -14 9 -7 13 -44 13 -132 0 -82
4 -126 12 -134 9 -9 127 -12 468 -12 341 0 459 -3 468 -12 9 -9 12 -98 12
-339 0 -180 -3 -334 -6 -343 -5 -14 -28 -16 -154 -16 -108 0 -150 -3 -158 -13
-6 -7 -12 -72 -14 -150 l-3 -137 65 -2 c36 -1 92 -3 125 -4 33 -2 311 -3 618
-3 l557 -1 0 -165 0 -165 -142 -2 c-79 -1 -229 -3 -334 -3 -105 -1 -196 -5
-202 -9 -7 -4 -10 -55 -9 -157 2 -83 -1 -153 -5 -155 -4 -3 -156 -5 -337 -4
l-330 0 0 -127 c0 -71 2 -135 5 -145 4 -14 24 -16 152 -16 l147 0 3 -116 3
-116 -321 0 -320 0 -1 -62 c0 -35 -1 -121 -1 -193 l0 -130 326 -3 326 -2 0
-125 0 -126 -628 1 c-615 1 -628 1 -629 21 -1 10 2 19 7 19 5 0 7 7 3 16 -5
14 -7 104 -4 167 1 15 15 17 151 17 l150 0 1 143 c0 78 0 170 -1 205 l-1 64
78 -3 c43 -1 113 -1 156 -1 l77 2 0 420 0 420 155 0 155 0 0 158 0 157 -142
-5 -143 -5 -6 -138 c-3 -80 -11 -143 -17 -149 -7 -7 -71 -14 -159 -17 l-148
-6 -5 -412 c-3 -226 -9 -415 -13 -420 -5 -4 -69 -9 -143 -10 -73 -1 -138 -4
-144 -8 -6 -4 -10 -81 -10 -204 0 -140 -3 -200 -12 -209 -8 -8 -56 -12 -149
-12 -104 0 -139 -3 -148 -14 -8 -9 -11 -75 -9 -217 l3 -204 955 0 955 0 5 532
c4 410 8 535 18 545 8 8 66 14 190 18 l177 5 3 135 c1 74 7 139 13 145 6 6
117 12 282 15 l272 5 6 153 c4 117 9 156 20 163 22 14 369 10 370 -4 1 -7 4
-79 8 -162 l6 -150 337 -5 c185 -3 340 -9 345 -13 4 -5 10 -68 13 -140 l5
-132 162 -6 c89 -3 166 -9 170 -13 4 -4 10 -251 13 -549 l5 -542 954 -3 c696
-1 957 1 967 9 19 16 20 408 2 414 -7 2 -84 6 -170 8 l-158 5 0 -99 0 -99
-625 0 -625 0 0 115 0 115 326 0 326 0 -4 193 -3 192 35 5 c19 3 88 4 153 2
l117 -3 0 -190 0 -189 150 0 150 0 0 183 c0 129 -4 187 -12 195 -8 8 -52 12
-133 12 -66 0 -127 5 -135 10 -13 8 -15 68 -18 422 -2 305 -6 415 -15 420 -7
4 -73 8 -148 8 -116 0 -138 2 -143 16 -3 9 -6 71 -6 138 0 82 -4 126 -12 134
-8 8 -56 12 -148 12 -74 0 -140 4 -146 8 -7 4 -14 66 -18 156 -4 82 -9 153
-12 158 -3 4 -67 8 -142 8 -75 0 -144 5 -152 10 -13 8 -15 58 -15 350 0 292 2
342 15 350 9 6 202 10 472 10 442 0 458 1 468 19 5 11 10 72 10 135 0 137 -15
125 165 129 l120 2 6 150 c3 83 2 152 -3 153 -4 2 -13 13 -20 25 -11 21 -10
21 9 4 17 -15 41 -17 179 -17 111 0 164 4 172 12 8 8 12 54 12 139 0 92 4 129
13 137 8 7 72 13 158 14 l144 3 3 419 c1 296 -1 423 -9 432 -8 10 -50 14 -158
16 l-146 3 -5 105 -5 105 -315 0 -315 0 -6 -105 c-4 -58 -7 -106 -8 -107 0 -2
-139 -4 -308 -5 l-308 -3 -6 -300 c-3 -165 -6 -301 -7 -302 -1 -2 -69 -3 -152
-3 -177 0 -159 -19 -163 175 l-2 130 -180 6 c-99 3 -181 6 -182 7 -2 1 -3 69
-3 152 l0 150 183 2 182 3 3 208 2 207 150 0 150 0 0 230 0 230 110 0 110 0 0
210 0 210 100 0 100 0 0 160 0 159 103 3 102 3 8 75 c4 41 6 338 5 660 l-3
585 -140 5 c-77 3 -146 9 -152 13 -10 6 -13 64 -14 225 -1 119 -4 318 -8 442
l-6 225 -143 6 c-82 3 -147 10 -154 17 -6 6 -13 68 -17 139 l-6 128 -138 6
c-86 4 -142 10 -150 18 -8 8 -14 82 -17 239 l-5 227 -173 5 c-136 5 -175 9
-182 20 -6 8 -10 75 -10 148 0 97 -3 134 -12 137 -7 2 -450 6 -984 9 -716 3
-974 2 -983 -7z m1649 -432 l0 -125 168 0 169 0 6 -182 c4 -99 7 -219 7 -265
l0 -83 164 0 163 0 7 -112 c3 -62 6 -199 5 -304 l0 -191 -457 -6 c-475 -7
-2023 -12 -2619 -9 l-343 2 0 310 0 310 165 0 165 0 0 150 0 150 170 0 170 0
0 115 0 115 200 0 200 0 0 118 c0 65 3 122 7 125 3 4 377 7 830 7 l823 0 0
-125z m-3386 -1561 c13 -5 16 -25 16 -110 l0 -104 -145 0 -145 0 0 110 0 110
129 0 c71 0 136 -3 145 -6z m4531 -333 c3 -5 0 -13 -6 -17 -8 -5 -9 -3 -4 6 6
10 4 12 -9 7 -10 -4 -15 -3 -11 3 8 13 22 13 30 1z m-4512 -153 c3 -18 6 -75
7 -125 l1 -93 -156 0 -155 0 0 125 0 125 149 0 149 0 5 -32z m3372 -463 l0
-260 -186 -3 -186 -2 -6 121 c-9 160 -9 394 0 403 4 3 90 5 192 4 l186 -3 0
-260z m705 5 l0 -260 -185 0 -185 0 0 260 0 260 185 0 185 0 0 -260z m-4390
85 l0 -145 -155 0 -155 0 0 145 0 145 155 0 155 0 0 -145z m5988 -2540 l-3
-425 -215 -4 c-118 -2 -338 -5 -488 -5 l-272 -1 1 -52 c1 -29 7 -56 13 -60 6
-5 7 -8 1 -8 -6 0 -10 -39 -9 -98 0 -53 -2 -103 -4 -110 -3 -10 -37 -11 -156
-6 -83 3 -153 7 -156 9 -3 2 -4 78 -2 169 l3 166 159 0 160 0 0 285 0 285 155
0 155 0 0 140 0 140 330 0 330 0 -2 -425z m-3848 -25 l0 -150 113 -2 c61 -1
302 0 535 1 l422 2 1 -63 c0 -35 0 -88 -1 -120 -1 -60 -4 -58 62 -72 23 -5 26
-4 21 11 -4 10 -11 21 -17 25 -7 5 -7 8 2 8 7 0 17 -12 23 -27 7 -20 12 -24
18 -14 5 8 11 9 15 3 8 -13 88 -3 98 12 5 7 8 4 8 -8 0 -14 6 -17 25 -14 l25
5 0 -108 0 -109 105 0 105 0 0 -82 c1 -46 1 -171 0 -278 l0 -195 40 -29 c38
-28 40 -33 40 -81 0 -29 3 -80 6 -113 l7 -61 -149 -3 -149 -3 -3 -117 -3 -118
-139 0 -140 0 0 -103 0 -104 -302 -7 c-216 -5 -305 -11 -311 -19 -4 -7 -6 -29
-5 -49 l3 -38 -370 -2 c-203 -2 -423 -2 -487 0 l-118 3 0 645 0 644 -164 0
c-99 0 -167 -4 -171 -10 -4 -6 -73 -10 -176 -10 l-169 0 0 169 c0 126 -3 171
-12 174 -7 3 69 6 170 6 l182 1 0 120 0 120 308 0 c226 0 311 3 320 12 8 8 12
57 12 155 l0 143 110 0 110 0 0 -150z m1181 -97 c13 -16 12 -17 -3 -4 -10 7
-18 15 -18 17 0 8 8 3 21 -13z m-2575 -311 c-5 -8 -76 -4 -76 4 0 2 18 4 41 4
22 0 38 -4 35 -8z m77 1 c-7 -2 -19 -2 -25 0 -7 3 -2 5 12 5 14 0 19 -2 13 -5z
m44 1 c-3 -3 -12 -4 -19 -1 -8 3 -5 6 6 6 11 1 17 -2 13 -5z m3553 -4 c0 -5
-5 -10 -11 -10 -5 0 -7 5 -4 10 3 6 8 10 11 10 2 0 4 -4 4 -10z m74 -5 c3 -8
1 -15 -3 -15 -5 0 -11 7 -15 15 -3 8 -1 15 3 15 5 0 11 -7 15 -15z m23 -17
c-3 -7 -5 -2 -5 12 0 14 2 19 5 13 2 -7 2 -19 0 -25z m806 -478 c-7 -27 -13
-25 -11 4 1 14 5 23 9 20 4 -2 5 -13 2 -24z m7 -105 c0 -18 -26 -20 -36 -3 -5
8 -2 9 11 4 15 -5 16 -4 5 9 -7 8 -17 12 -23 8 -6 -3 -7 -1 -3 5 10 16 46 -3
46 -23z m-795 -5 c3 -5 2 -10 -4 -10 -5 0 -13 5 -16 10 -3 6 -2 10 4 10 5 0
13 -4 16 -10z m-1505 -980 c-10 -6 1 -8 30 -4 24 3 50 10 57 16 10 8 12 7 7
-6 -3 -9 -2 -16 4 -16 6 0 12 5 14 12 2 6 12 12 21 14 9 1 15 -2 12 -7 -9 -14
44 -22 60 -9 13 11 14 10 9 -4 -5 -14 -25 -16 -141 -16 -119 0 -134 2 -123 15
7 8 15 13 19 11 4 -3 13 -1 21 4 8 5 17 7 19 4 3 -3 -1 -9 -9 -14z m-88 -5
c18 0 19 -15 1 -15 -12 0 -24 7 -27 16 -4 10 -2 13 7 7 6 -4 15 -8 19 -8z
m393 6 c-3 -5 5 -12 17 -14 15 -3 9 -5 -14 -6 -21 0 -38 4 -38 10 0 5 4 8 9 4
5 -3 12 -1 16 5 3 5 8 10 11 10 3 0 3 -4 -1 -9z m112 -13 c-3 -8 -6 -5 -6 6
-1 11 2 17 5 13 3 -3 4 -12 1 -19z m68 -1 c12 -3 4 -5 -18 -6 -32 -1 -36 1
-25 13 7 8 15 10 18 6 3 -4 14 -10 25 -13z m-230 3 c3 -5 -3 -10 -15 -10 -12
0 -18 5 -15 10 3 6 10 10 15 10 5 0 12 -4 15 -10z m145 -6 c0 -2 -12 -4 -27
-4 -21 0 -24 3 -14 9 13 8 41 5 41 -5z m257 0 c-3 -3 -12 -4 -19 -1 -8 3 -5 6
6 6 11 1 17 -2 13 -5z m683 -446 c-1 -62 -1 -134 -1 -160 l1 -48 163 -2 162
-3 3 -307 2 -308 167 0 166 0 -7 -46 c-3 -26 -6 -78 -6 -115 l0 -69 -320 0
-320 0 -1 73 c0 39 -2 146 -5 237 -2 91 -4 178 -4 194 l0 28 -172 -3 -173 -4
-3 158 -3 157 -174 0 c-110 0 -175 4 -175 10 0 6 -71 10 -192 10 l-193 0 2
143 c1 78 2 148 2 155 1 9 116 12 542 12 l540 0 -1 -112z"/>
<path d="M5221 3883 l-2 -143 231 0 230 0 0 144 0 144 -229 -1 -229 -1 -1
-143z"/>
<path d="M5210 3330 l0 -140 98 0 c53 -1 159 -3 234 -7 l138 -5 -1 146 0 146
-235 0 -234 0 0 -140z"/>
<path d="M4730 2835 l0 -105 120 0 120 0 0 105 0 105 -120 0 -120 0 0 -105z"/>
</g>
</svg>
